<?xml version="1.0" encoding="utf-8"?>
<!DOCTYPE svg PUBLIC "-//W3C//DTD SVG 1.0//EN" "http://www.w3.org/TR/2001/REC-SVG-20010904/DTD/svg10.dtd">
<svg version="1.0" xmlns="http://www.w3.org/2000/svg" width="1376px" height="768px" viewBox="0 0 1376 768" preserveAspectRatio="xMidYMid meet">
 <defs>
  <mask id="b-counter-cutout" maskUnits="userSpaceOnUse" x="0" y="0" width="1376" height="768">
   <rect x="0" y="0" width="1376" height="768" fill="white"/>
   <path fill="black" d="M570.8 560.6 c-12 -3.3 -16.5 -9.2 -17.9 -23.2 -1.2 -13.5 -0.3 -140.2 1.1 -145.5 2.1 -7.8 10.9 -14.9 18.6 -14.9 1.8 0 3.6 -0.4 3.9 -1 1 -1.7 81.7 -1.3 96 0.5 37.6 4.6 68.6 24.8 78.5 51.1 5 13.5 5.5 16.8 5.5 38.4 0 16.5 -0.3 21.8 -1.8 27 -2.1 7.7 -7.3 19.2 -11.8 25.7 -3.6 5.3 -16.7 19.3 -18.1 19.3 -0.5 0 -4.3 2.4 -8.6 5.3 -4.2 2.9 -9.3 5.9 -11.2 6.6 -1.9 0.7 -4.4 1.7 -5.5 2.2 -3.7 1.5 -10.9 3.6 -18.5 5.4 -4.1 0.9 -9.1 2.2 -11 2.8 -5.6 1.7 -93.3 2 -99.2 0.3z M571.1 322.4 c-6.6 -1.8 -10.9 -4.3 -13.7 -8.1 -4.8 -6.5 -4.9 -7.3 -4.9 -65.8 0 -30.2 0.3 -59.2 0.6 -64.3 0.5 -8.8 0.8 -9.5 3.5 -11.8 1.6 -1.4 3.8 -2.9 4.9 -3.5 1.1 -0.5 3.1 -1.6 4.5 -2.4 2.1 -1.2 11.2 -1.5 55.3 -1.5 49.6 0 53.5 0.1 63 2.1 18.9 3.8 34.2 11.6 46.1 23.5 8.5 8.6 12.8 15.5 16.8 26.9 8.7 25.2 4.3 57.2 -10.4 74.9 -5.6 6.9 -18 16.6 -26.2 20.6 -20.4 10 -28.5 11 -87.6 10.9 -37.5 0 -47.6 -0.3 -51.9 -1.5z"/>
  </mask>
 </defs>
 <g fill="#000000" mask="url(#b-counter-cutout)">
  <path d="M673.5 627 c18.2 -2.2 28 -4.2 35 -7.1 1.1 -0.4 4 -1.3 6.5 -2 2.5 -0.6 5.4 -1.5 6.5 -2 1.1 -0.4 5.2 -2.1 9.1 -3.7 3.9 -1.6 10.1 -4.8 13.8 -7.1 3.8 -2.2 7 -4.1 7.2 -4.1 1.7 0 15 -10.2 23 -17.5 28.3 -26.1 42.8 -57.8 42.7 -94 -0.1 -23.5 -4.5 -41.9 -15 -62.9 -8.5 -17 -25.4 -36.5 -40.5 -46.7 -5.2 -3.5 -5.8 -4.3 -5.8 -7.4 0 -2.7 0.7 -4 3.6 -6.2 34.9 -26.9 58.5 -64.7 67 -107.3 5.2 -25.8 4.2 -47.2 -3.2 -69.8 -14.4 -44.3 -52.6 -75.6 -106.4 -87.4 l-10.5 -2.3 -103 0 -103 0 -6.1 3.2 c-10.9 5.7 -20.5 18.1 -24.1 31.4 -1.6 6 -1.8 20.8 -2.1 230.9 -0.1 142.2 0.1 226.8 0.7 230.8 1.8 11.3 8.1 20.6 18.2 26.5 9.6 5.6 8.4 5.6 97.4 5.6 45.1 0 85.2 -0.4 89 -0.9z m250.8 -45.1 c3.7 -1.9 6.7 -5 13.6 -14.4 28.7 -38.6 48.9 -86.5 56.5 -133.8 4.9 -30.4 5.6 -53.3 2.6 -80.2 -3.2 -28 -10.2 -55.9 -21.1 -83.2 -11.1 -27.9 -40.1 -74.8 -49.8 -80.6 -6.1 -3.6 -14.7 0 -18.1 7.6 -2.4 5.2 -2 6.2 8.8 21.1 22.1 30.5 37.1 62.3 46 98.1 6.1 24.2 9 59.6 7.2 87 -3.9 57.6 -20.1 102.5 -54.2 150.3 -8.3 11.8 -9 13 -8.5 16.5 0.6 4.2 3.3 7.8 8.2 10.8 3.5 2.2 5.7 2.4 8.8 0.8z m-53 -50.4 c2.5 -1 5.4 -4 9.9 -10.2 23.4 -31.8 37.3 -65 43.8 -104.4 3.1 -18.4 3.1 -46 0.1 -63.4 -2.6 -14.7 -7.9 -35.1 -12.1 -46.4 -9.6 -26 -32.6 -62.9 -41.5 -66.7 -5.8 -2.4 -12.9 1 -16.3 7.7 -2.9 5.8 -2.4 7.3 6.7 19.4 25.1 33.3 37.3 71.9 37.2 117.5 0 34 -6 61.2 -19.4 89 -5.8 12 -12.7 23.6 -19.1 31.9 -5.9 7.6 -8 12.2 -7.2 15.4 0.9 3.5 5.4 8.7 9.1 10.3 3.9 1.7 4.5 1.7 8.8 -0.1z"/>
 </g>
 <g fill="#ca4a2b">
  <path fill-rule="evenodd" d="M494 629.4 c-7.1 -1.9 -13.3 -5.6 -18.6 -11 -5.3 -5.5 -8.2 -11.5 -9.5 -19.6 -0.6 -4 -0.8 -89.6 -0.7 -233.8 0.3 -212.9 0.5 -227.9 2.1 -233.9 3.6 -13.3 13.2 -25.7 24.1 -31.4 l6.1 -3.2 106 0 106 0 10.5 2.3 c38 8.3 69.1 26.9 88.9 53.2 11.2 14.9 19.2 34.3 22.6 55 3.7 21.8 0.4 53.6 -8 78 -9.8 28.5 -30 58.6 -51.5 76.5 -3.9 3.3 -8.6 7.2 -10.3 8.6 l-3 2.6 6 4.1 c26.8 18.2 48.3 52.6 54 86.1 2.5 14.9 2.2 40.9 -0.5 53.8 -5.9 27.2 -19.1 50 -40.6 69.8 -8 7.3 -21.3 17.5 -23 17.5 -0.2 0 -3.4 1.9 -7.2 4.1 -3.7 2.3 -9.9 5.5 -13.8 7.1 -3.9 1.6 -8 3.3 -9.1 3.7 -1.1 0.5 -4 1.4 -6.5 2 -2.5 0.7 -5.4 1.6 -6.5 2 -7 2.9 -16.8 4.9 -35 7.1 -3.8 0.5 -45.2 0.9 -92 0.9 -71.7 0 -85.9 -0.3 -90.5 -1.5z M570.8 560.6 c-12 -3.3 -16.5 -9.2 -17.9 -23.2 -1.2 -13.5 -0.3 -140.2 1.1 -145.5 2.1 -7.8 10.9 -14.9 18.6 -14.9 1.8 0 3.6 -0.4 3.9 -1 1 -1.7 81.7 -1.3 96 0.5 37.6 4.6 68.6 24.8 78.5 51.1 5 13.5 5.5 16.8 5.5 38.4 0 16.5 -0.3 21.8 -1.8 27 -2.1 7.7 -7.3 19.2 -11.8 25.7 -3.6 5.3 -16.7 19.3 -18.1 19.3 -0.5 0 -4.3 2.4 -8.6 5.3 -4.2 2.9 -9.3 5.9 -11.2 6.6 -1.9 0.7 -4.4 1.7 -5.5 2.2 -3.7 1.5 -10.9 3.6 -18.5 5.4 -4.1 0.9 -9.1 2.2 -11 2.8 -5.6 1.7 -93.3 2 -99.2 0.3z M571.1 322.4 c-6.6 -1.8 -10.9 -4.3 -13.7 -8.1 -4.8 -6.5 -4.9 -7.3 -4.9 -65.8 0 -30.2 0.3 -59.2 0.6 -64.3 0.5 -8.8 0.8 -9.5 3.5 -11.8 1.6 -1.4 3.8 -2.9 4.9 -3.5 1.1 -0.5 3.1 -1.6 4.5 -2.4 2.1 -1.2 11.2 -1.5 55.3 -1.5 49.6 0 53.5 0.1 63 2.1 18.9 3.8 34.2 11.6 46.1 23.5 8.5 8.6 12.8 15.5 16.8 26.9 8.7 25.2 4.3 57.2 -10.4 74.9 -5.6 6.9 -18 16.6 -26.2 20.6 -20.4 10 -28.5 11 -87.6 10.9 -37.5 0 -47.6 -0.3 -51.9 -1.5z"/>
  <path d="M860 534.9 c-6.1 -2.4 -10 -8.5 -10 -15.4 0 -5.3 1.6 -8.8 7.7 -16.7 24.3 -31.7 38.3 -74.7 38.4 -117.7 0 -43.5 -12.9 -82.7 -38.4 -116.4 -6.8 -9 -8.4 -13.1 -7.3 -18.9 1.4 -7.6 6.7 -12.3 15.2 -13.5 9 -1.2 13.6 2.4 26.3 21.2 7.9 11.5 19.5 33.9 24.1 46.6 4.2 11.2 9.5 31.6 12.1 46.4 3.1 17.7 3.1 50.6 0 69.4 -6.7 39.6 -20.5 72.6 -43.9 104.4 -4.5 6.2 -7.4 9.2 -9.9 10.2 -4 1.7 -10.6 1.9 -14.3 0.4z"/>
 </g>
 <g fill="#4b1b13">
  <path d="M912.5 584.1 c-4.4 -2.7 -7.2 -6.1 -8.3 -10.2 -1.8 -6.5 -0.1 -10.9 9 -23.6 9.4 -13.1 18.7 -28.1 24 -38.8 17.1 -34.1 27.4 -71.2 29.3 -106 0.4 -6 0.8 -12.3 1 -14 0.8 -5.9 -1.5 -39.2 -3.6 -51.5 -7.2 -43.4 -23.4 -81.7 -50.6 -119.3 -5.6 -7.8 -9.5 -14.2 -9.9 -16.4 -1.5 -7.7 3.9 -16.7 11.1 -18.3 6.8 -1.6 11.8 -1.2 15.2 1.2 10.6 7.5 38.3 52.7 49.2 80.1 22.1 55.5 28 110.1 18.5 169.4 -7.6 47.4 -27.8 95.2 -56.5 133.8 -10 13.5 -12.7 15.5 -20.6 15.5 -2.9 0 -6 -0.7 -7.8 -1.9z"/>
  <path d="M465.5 369 c0 -96 0.1 -135.2 0.2 -87.3 0.2 48 0.2 126.6 0 174.5 -0.1 48 -0.2 8.8 -0.2 -87.2z"/>
  <path d="M555.4 446 c0 -16.8 0.2 -23.6 0.3 -15.2 0.2 8.3 0.2 22.1 0 30.5 -0.1 8.3 -0.3 1.5 -0.3 -15.3z"/>
 </g>
</svg>